<svg width="866" height="1076" viewBox="0 0 866 1076" fill="none" xmlns="http://www.w3.org/2000/svg">
<path d="M153.596 96.4105C245.096 56.41 258.596 18.41 347.596 7.40999C436.596 -3.58999 523.431 24.9105 559.596 49.9105C595.76 74.9104 633.596 125.91 708.096 223.91C782.596 321.91 766.596 396.91 757.096 435.41C747.596 473.91 664.596 510.91 643.596 508.91C622.596 506.91 630.596 472.91 618.096 472.91C605.596 472.91 569.096 502.91 569.096 533.41C569.096 563.91 676.096 680.91 699.096 695.91C722.096 710.91 844.596 740.41 857.596 805.41C870.596 870.41 828.596 946.41 796.096 963.91C763.596 981.41 730.596 979.91 722.596 997.41C714.596 1014.91 593.596 1039.41 559.596 1039.41C525.596 1039.41 506.096 1008.91 495.596 1008.91C485.096 1008.91 482.096 1039.91 467.096 1051.41C452.096 1062.91 376.596 1072.41 350.096 1069.91C323.596 1067.41 310.596 1028.91 298.096 1026.41C285.596 1023.91 269.096 1029.91 253.596 1039.41C238.096 1048.91 166.596 1039.41 150.096 1039.41C133.596 1039.41 116.596 1014.91 118.596 997.41C120.596 979.91 138.596 956.91 150.096 936.91C161.596 916.91 172.096 816.41 142.596 766.41C113.096 716.41 128.096 654.41 128.096 635.41C128.096 616.41 165.596 548.41 166.596 533.41C167.596 518.41 142.596 508.91 128.096 472.91C113.596 436.91 117.596 414.41 101.596 410.91C85.5958 407.41 64.0957 436.91 49.0957 435.41C34.0957 433.91 0.0958247 351.91 5.59583 274.91C11.0958 197.91 62.0959 136.411 153.596 96.4105Z" stroke="black" stroke-width="10" stroke-dasharray="80 40"/>
</svg>
